<svg width="129" height="183" xmlns="http://www.w3.org/2000/svg" xmlns:xlink="http://www.w3.org/1999/xlink" xml:space="preserve" overflow="hidden"><g transform="translate(-1851 -488)"><path d="M1880.32 510.784 1879.68 509.686 1869.32 492.255 1866.8 488 1852.28 510.143 1852.56 511.607 1852.62 511.607 1854.65 512.934 1856.07 512.659 1856.8 511.607 1864.24 500.233 1862.5 576.32 1855.57 564.631 1854.93 563.533 1853.56 563.167 1852.46 563.808 1851.37 564.494 1851 565.867 1851.64 566.965 1864.52 588.65 1867.31 584.395 1879.04 566.507 1878.76 565.089 1876.66 563.716 1875.25 563.991 1874.48 565.089 1867.07 576.421 1868.81 500.334 1875.75 512.019 1876.39 513.117 1877.8 513.483 1878.85 512.842 1879.95 512.156 1880.32 510.784Z" fill="#124191" fill-rule="evenodd"/><path d="M1906.16 586.957 1905.61 586.5 1898.45 578.274 1895.72 568.836 1897.5 559.361 1903.88 550.998 1904.47 550.54 1904.47 549.854 1903.33 548.939 1902.46 548.939 1901.92 549.397 1894.9 558.515 1892.9 568.836 1895.82 579.116 1903.6 588.101 1903.88 588.33 1904.34 588.467 1904.61 588.467 1905.02 588.467 1905.29 588.33 1906.16 587.644 1906.16 586.957Z" fill="#124191" fill-rule="evenodd"/><path d="M1910.55 581.925 1910 581.467 1904.88 575.648 1902.95 569.014 1904.25 562.362 1908.86 556.488 1909.4 556.03 1909.27 555.207 1908.72 554.887 1908.13 554.429 1907.3 554.429 1906.71 554.887 1901.56 561.538 1900.08 569.083 1902.24 576.608 1907.99 583.206 1908.26 583.435 1908.72 583.526 1908.99 583.526 1909.4 583.526 1910.55 582.611 1910.55 581.925Z" fill="#124191" fill-rule="evenodd"/><path d="M1913.83 575.474 1913.24 575.017 1910.54 571.992 1909.5 568.534 1910.17 565.061 1912.55 561.978 1913.1 561.52 1913.1 560.834 1911.96 559.919 1911.09 559.919 1910.55 560.377 1907.51 564.238 1906.62 568.598 1907.87 572.93 1911.23 576.709 1911.55 576.938 1912.24 576.938 1912.55 576.938 1912.97 576.847 1913.83 576.16 1913.83 575.474Z" fill="#124191" fill-rule="evenodd"/><path d="M1956.03 564.586 1955.57 563.991 1954.66 563.899 1953.93 563.762 1953.15 564.128 1953.06 564.586 1953.01 564.814 1950.27 575.401 1946.67 573.04 1946.67 576.069 1944.29 576.069 1944.29 596.29 1943.01 594.68 1943.01 598.807 1942.19 598.807 1942.19 601.094 1936.44 606.95 1934.61 605.033 1934.61 608.78 1924.84 618.662 1926.66 601.094 1927.21 601.094 1934.61 608.78 1934.61 605.033 1930.87 601.094 1942.19 601.094 1942.19 598.807 1928.17 598.807 1930.47 596.062 1935.75 589.748 1943.01 598.807 1943.01 594.68 1939.11 589.748 1937.44 587.644 1939.18 585.493 1942.73 581.11 1944.26 596.062 1944.29 596.29 1944.29 576.069 1941.64 576.069 1941.64 578.356 1935.75 585.493 1934.06 583.402 1934.06 587.552 1927.08 596.062 1928.74 581.11 1928.77 580.873 1934.06 587.552 1934.06 583.402 1932.03 580.873 1930 578.356 1941.64 578.356 1941.64 576.069 1924.98 576.069 1934.66 569.659 1934.66 573.095 1935.2 573.644 1936.71 573.644 1937.4 573.095 1937.4 570.007 1946.67 576.069 1946.67 573.04 1940.41 568.932 1937.4 566.951 1937.4 553.24 1936.71 552.782 1935.2 552.782 1934.66 553.24 1934.66 566.772 1921.2 575.648 1918.58 564.814 1918.45 564.128 1917.53 563.762 1916.8 563.899 1916.07 563.991 1915.48 564.586 1915.61 565.272 1920.18 583.709 1920.77 584.075 1921.82 584.075 1922.56 583.938 1923.15 583.252 1921.89 578.356 1926.25 578.356 1916.71 669.536 1916.57 670.131 1917.12 670.68 1917.99 670.68 1917.99 670.817 1918.81 670.817 1919.36 670.359 1919.5 669.673 1919.82 666.471 1924.61 663.451 1935.75 656.452 1951.55 666.471 1951.69 666.333 1951.99 669.536 1952.01 669.673 1952.1 670.131 1952.15 670.359 1952.69 670.817 1953.52 670.817 1953.52 670.68 1954.38 670.68 1954.93 670.131 1954.82 669.673 1954.79 669.536 1954.47 666.471 1954.46 666.333 1954.15 663.451 1952.53 647.96 1952.51 647.713 1952.27 645.426 1952.03 643.138 1951.41 637.287 1951.41 663.451 1940.19 656.452 1937.99 655.079 1940.37 653.569 1949.63 647.713 1949.77 647.713 1951.39 663.208 1951.41 663.451 1951.41 637.287 1950.12 624.884 1949.91 622.917 1949.67 620.629 1949.36 617.656 1949.18 615.908 1949.18 643.138 1948.08 642.173 1948.08 645.426 1944.98 645.426 1944.98 647.713 1935.75 653.569 1933.38 652.105 1933.38 655.079 1920.09 663.451 1921.71 647.96 1921.73 647.713 1933.38 655.079 1933.38 652.105 1926.25 647.713 1944.98 647.713 1944.98 645.426 1924.43 645.426 1925.95 644.053 1936.03 634.995 1948.08 645.426 1948.08 642.173 1939.96 634.995 1937.99 633.256 1939.93 631.518 1947.35 624.884 1949.18 643.138 1949.18 615.908 1947.72 602.009 1947.63 601.094 1947.39 598.807 1947.13 596.29 1946.53 590.576 1946.53 617.656 1945.84 616.933 1945.84 620.629 1945.71 620.629 1945.71 622.917 1936.03 631.518 1934.2 629.912 1934.2 633.256 1922.19 644.053 1924.11 624.884 1924.15 624.518 1934.2 633.256 1934.2 629.912 1928.07 624.518 1926.25 622.917 1945.71 622.917 1945.71 620.629 1926.39 620.629 1928.35 618.662 1936.3 610.656 1945.84 620.629 1945.84 616.933 1939.9 610.656 1938.13 608.78 1939.98 606.95 1944.98 602.009 1946.53 617.656 1946.53 590.576 1945.54 581.11 1945.25 578.356 1949.58 578.356 1949.54 578.539 1948.36 583.252 1948.81 583.938 1949.72 584.075 1950.59 584.075 1951.23 583.709 1955.89 565.272 1955.98 564.814 1956.03 564.586Z" fill="#124191" fill-rule="evenodd"/><path d="M1966.52 568.598 1965.63 564.238 1962.6 560.377 1962.05 559.919 1961.19 559.919 1960.05 560.834 1960.05 561.52 1960.59 561.978 1962.98 565.061 1963.64 568.534 1962.61 571.992 1959.91 575.017 1959.31 575.474 1959.31 576.16 1960.18 576.847 1960.46 576.938 1960.91 576.938 1961.6 576.938 1961.92 576.709 1965.28 572.93 1966.52 568.598Z" fill="#124191" fill-rule="evenodd"/><path d="M1972.62 569.083 1971.21 561.538 1966.3 554.887 1965.75 554.429 1964.79 554.429 1964.25 554.887 1963.7 555.207 1963.7 556.03 1964.25 556.488 1968.64 562.362 1969.91 569.014 1968.08 575.648 1963.15 581.467 1962.6 581.925 1962.6 582.611 1963.15 583.069 1963.29 583.297 1963.7 583.526 1964.11 583.526 1964.38 583.526 1964.79 583.435 1965.07 583.206 1970.56 576.608 1972.62 569.083Z" fill="#124191" fill-rule="evenodd"/><path d="M1979.86 568.932 1974.78 553.656 1970.14 548.939 1969.27 548.939 1968.13 549.854 1968.13 550.54 1972.34 554.896 1975.03 559.233 1976.59 563.917 1976.99 568.84 1976.11 573.736 1974.14 578.393 1971.09 582.688 1966.44 586.957 1966.44 587.644 1966.99 588.101 1967.58 588.467 1967.99 588.467 1968.31 588.467 1968.72 588.33 1973.4 584.002 1976.72 579.34 1978.89 574.271 1979.86 568.932Z" fill="#124191" fill-rule="evenodd"/></g></svg>