<svg width="172" height="172" xmlns="http://www.w3.org/2000/svg" xmlns:xlink="http://www.w3.org/1999/xlink" xml:space="preserve" overflow="hidden"><defs><clipPath id="clip0"><rect x="909" y="501" width="172" height="172"/></clipPath></defs><g clip-path="url(#clip0)" transform="translate(-909 -501)"><path d="M932.515 548.706 931.546 544.923 928.767 542.44 925.304 541.107 921.644 540.91 918.273 541.854 915.632 544.648 914.047 548.097 913.799 551.738 915.195 555.092 917.85 557.579 921.079 558.912 924.693 559.109 928.515 558.161 930.999 555.513 932.336 552.297 932.515 548.706Z" fill="#124191" fill-rule="evenodd"/><path d="M1080.84 590.174 1079.97 573.666 1075.82 557.345 1072.29 550.053 1071.78 549 1068.32 541.854 1066.3 539.234 1066.3 580.697 1065.24 580.899 1065.24 598.057 1064.23 605.249 1057.07 603.911 1057.07 621.601 1053.99 626.686 1039.66 618.532 1042.74 613.402 1057.07 621.601 1057.07 603.911 1047.84 602.18 1048.72 597.05 1048.87 596.161 1048.89 596.042 1065.24 598.057 1065.24 580.899 1049.9 583.766 1048.89 576.62 1065.24 573.551 1066.3 580.697 1066.3 539.234 1060.44 531.639 1060.14 531.254 1060.14 556.191 1045.81 564.344 1041.73 559.26 1044.93 557.199 1056.06 550.053 1060.14 556.191 1060.14 531.254 1057.55 527.892 1047.77 519.363 1044.8 516.78 1044.8 535.716 1034.56 549 1034.56 557.199 1027.4 563.327 1027.4 629.755 1027.4 646.107 963.925 646.107 963.925 629.755 1027.4 629.755 1027.4 563.327 1005.9 581.705 1006.91 582.758 1006.91 585.827 1006.02 590.174 1003.59 593.742 1000.02 596.161 995.661 597.05 991.303 596.161 989.571 594.988 987.725 593.742 985.3 590.174 984.409 585.827 984.831 583.766 985.3 581.48 987.725 577.893 991.303 575.457 995.661 574.559 998.739 574.559 1000.76 575.613 1002.83 577.628 1007.59 574.559 1008.98 573.666 1034.56 557.199 1034.56 549 1029.42 543.915 1034.54 537.777 1039.66 531.639 1044.8 535.716 1044.8 516.78 1044.73 516.716 1044 516.294 1030.3 508.438 1023.31 506.075 1023.31 521.424 1018.17 537.777 1012.01 534.708 1012.7 532.647 1017.16 519.363 1023.31 521.424 1023.31 506.075 1014.71 503.162 998.739 501.046 998.739 516.294 998.739 532.647 991.574 532.647 991.574 519.363 991.574 516.294 998.739 516.294 998.739 501.046 998.394 501 981.81 502.062 979.265 502.745 979.265 534.708 973.152 537.777 970.69 531.639 967.002 522.432 973.152 519.363 979.265 534.708 979.265 502.745 965.395 506.451 961.858 508.205 961.858 544.923 956.76 549 951.662 542.912 951.662 618.532 937.333 626.686 934.256 620.548 948.585 612.395 951.662 618.532 951.662 542.912 946.518 536.769 951.662 531.639 961.858 544.923 961.858 508.205 945.003 516.931 932.189 527.562 935.064 529.276 937.558 531.378 939.68 533.879 941.42 536.769 944.888 545.77 944.612 555.156 943.441 557.725 943.441 602.18 927.091 605.249 926.034 598.057 942.431 594.988 943.441 602.18 943.441 557.725 942.431 559.942 942.431 576.62 941.42 583.766 925.024 580.697 926.034 574.559 942.431 576.62 942.431 559.942 940.681 563.781 933.199 570.482 927.665 572.795 921.947 573.666 916.224 573.203 910.695 571.49 909 586.968 910.166 602.18 914.438 617.502 921.947 631.816 932.418 645.782 945.09 656.972 959.465 665.291 975.049 670.641 991.353 672.922 1007.88 672.038 1024.15 667.897 1039.66 660.399 1053.66 649.616 1056.71 646.107 1064.88 636.717 1068.87 629.755 1070.63 626.686 1073.21 622.188 1076.21 613.402 1076.55 612.395 1078.57 606.504 1078.74 605.249 1080.01 596.161 1080.03 596.042 1080.84 590.174Z" fill="#124191" fill-rule="evenodd"/></g></svg>