<svg width="236" height="122" xmlns="http://www.w3.org/2000/svg" xmlns:xlink="http://www.w3.org/1999/xlink" xml:space="preserve" overflow="hidden"><defs><clipPath id="clip0"><rect x="2718" y="546" width="236" height="122"/></clipPath></defs><g clip-path="url(#clip0)" transform="translate(-2718 -546)"><path d="M2730.94 584.042 2730.39 583.584 2723.41 575.353 2720.76 565.909 2722.51 556.428 2728.73 548.06 2729.28 547.602 2729.28 546.915 2728.18 546 2727.35 546 2726.8 546.458 2719.96 555.581 2718 565.909 2720.86 576.195 2728.46 585.186 2728.73 585.415 2729.15 585.553 2729.42 585.553 2729.84 585.553 2730.11 585.415 2730.94 584.729 2730.94 584.042Z" fill="#124191" fill-rule="evenodd"/><path d="M2735.36 579.006 2734.81 578.548 2729.65 572.725 2727.71 566.087 2729.02 559.431 2733.66 553.553 2734.21 553.096 2734.07 552.272 2733.52 551.951 2732.92 551.493 2732.09 551.493 2731.49 551.951 2726.31 558.607 2724.82 566.156 2726.99 573.687 2732.78 580.288 2733.06 580.517 2733.52 580.609 2733.79 580.609 2734.21 580.609 2735.36 579.693 2735.36 579.006Z" fill="#124191" fill-rule="evenodd"/><path d="M2738.67 572.597 2738.07 572.139 2735.35 569.223 2734.31 565.877 2734.98 562.503 2737.38 559.505 2737.93 559.093 2737.93 558.406 2736.78 557.536 2735.91 557.536 2735.36 557.994 2732.3 561.711 2731.41 565.927 2732.66 570.125 2736.05 573.787 2736.37 574.016 2737.06 574.016 2737.38 574.016 2737.8 573.925 2738.67 573.238 2738.67 572.597Z" fill="#124191" fill-rule="evenodd"/><path d="M2781.18 562.16 2780.76 561.61 2779.89 561.473 2779.2 561.381 2778.51 561.702 2778.42 562.16 2778.37 562.389 2775.74 572.89 2775.67 573.183 2771.75 570.633 2771.75 573.65 2769.35 573.65 2769.35 593.747 2768.07 592.154 2768.07 596.265 2767.24 596.265 2767.24 598.554 2761.44 604.413 2759.6 602.495 2759.6 606.199 2749.76 616.041 2751.6 598.554 2752.15 598.554 2759.6 606.199 2759.6 602.495 2755.83 598.554 2767.24 598.554 2767.24 596.265 2753.11 596.265 2755.44 593.518 2760.75 587.246 2768.07 596.265 2768.07 592.154 2764.11 587.246 2762.45 585.186 2764.22 583.035 2767.78 578.695 2769.33 593.518 2769.35 593.747 2769.35 573.65 2766.69 573.65 2766.69 575.939 2760.75 583.035 2759.05 580.952 2759.05 585.049 2752.01 593.518 2753.68 578.695 2753.71 578.457 2759.05 585.049 2759.05 580.952 2757.01 578.457 2754.95 575.939 2766.69 575.939 2766.69 573.65 2749.89 573.65 2759.65 567.278 2759.65 570.675 2760.2 571.27 2761.72 571.27 2762.41 570.675 2762.41 567.625 2771.75 573.65 2771.75 570.633 2765.47 566.555 2762.41 564.568 2762.41 564.494 2762.41 550.303 2761.72 549.845 2760.2 549.845 2759.65 550.303 2759.65 564.389 2746.27 573.115 2746.26 573.055 2743.78 562.389 2743.64 561.702 2742.81 561.381 2742.12 561.473 2741.43 561.61 2740.88 562.16 2741.02 562.846 2745.29 580.837 2745.85 581.158 2746.81 581.158 2747.5 581.066 2748.05 580.38 2746.99 575.939 2751.18 575.939 2741.57 666.718 2741.43 667.267 2741.98 667.863 2742.86 667.863 2742.86 667.954 2743.68 667.954 2744.24 667.496 2744.37 666.81 2744.7 663.605 2749.5 660.63 2760.75 653.671 2776.67 663.605 2776.81 663.514 2777.12 666.718 2777.13 666.81 2777.22 667.267 2777.27 667.496 2777.82 667.954 2778.65 667.954 2778.65 667.863 2779.52 667.863 2780.07 667.267 2779.96 666.81 2779.94 666.718 2779.6 663.605 2779.59 663.514 2779.29 660.63 2777.66 645.22 2777.63 644.973 2777.39 642.684 2777.14 640.395 2776.53 634.613 2776.53 660.63 2765.23 653.671 2763.01 652.298 2765.42 650.787 2774.74 644.973 2774.87 644.973 2776.5 660.387 2776.53 660.63 2776.53 634.613 2775.22 622.221 2775.02 620.299 2774.77 618.01 2774.46 615.034 2774.28 613.303 2774.28 640.395 2773.17 639.434 2773.17 642.684 2770.04 642.684 2770.04 644.973 2760.75 650.787 2758.36 649.336 2758.36 652.298 2744.97 660.63 2746.6 645.22 2746.63 644.973 2758.36 652.298 2758.36 649.336 2751.18 644.973 2770.04 644.973 2770.04 642.684 2749.34 642.684 2750.88 641.311 2761.03 632.293 2773.17 642.684 2773.17 639.434 2765 632.293 2763.01 630.553 2764.92 628.859 2772.44 622.221 2774.28 640.395 2774.28 613.303 2772.81 599.469 2772.71 598.554 2772.47 596.265 2772.2 593.747 2771.61 588.139 2771.61 615.034 2770.92 614.315 2770.92 618.01 2770.78 618.01 2770.78 620.299 2761.03 628.859 2759.19 627.261 2759.19 630.553 2747.09 641.311 2749.03 622.221 2749.07 621.901 2759.19 630.553 2759.19 627.261 2753.02 621.901 2751.18 620.299 2770.78 620.299 2770.78 618.01 2751.32 618.01 2753.29 616.041 2761.3 608.03 2770.92 618.01 2770.92 614.315 2764.9 608.03 2763.14 606.199 2764.97 604.413 2770.04 599.469 2771.61 615.034 2771.61 588.139 2770.61 578.695 2770.32 575.939 2775.06 575.939 2774.14 579.83 2774.03 580.242 2774 580.38 2774.41 581.066 2775.29 581.158 2776.12 581.158 2776.67 580.837 2776.77 580.38 2781.04 562.846 2781.13 562.389 2781.18 562.16Z" fill="#124191" fill-rule="evenodd"/><path d="M2791.75 565.927 2790.86 561.711 2787.8 557.994 2787.25 557.536 2786.38 557.536 2785.23 558.406 2785.23 559.093 2785.78 559.505 2788.18 562.503 2788.85 565.877 2787.81 569.223 2785.09 572.139 2784.49 572.597 2784.49 573.238 2785.36 573.925 2785.64 574.016 2786.1 574.016 2786.79 574.016 2787.11 573.787 2790.5 570.125 2791.75 565.927Z" fill="#124191" fill-rule="evenodd"/><path d="M2798.32 566.156 2796.86 558.607 2791.71 551.951 2791.11 551.493 2790.1 551.493 2789.55 551.951 2788.95 552.272 2788.95 553.096 2789.55 553.553 2794.15 559.431 2795.49 566.087 2793.57 572.725 2788.4 578.548 2787.8 579.006 2787.8 579.693 2788.4 580.151 2788.54 580.38 2788.95 580.609 2789.37 580.609 2789.69 580.609 2790.1 580.517 2790.38 580.288 2796.15 573.687 2798.32 566.156Z" fill="#124191" fill-rule="evenodd"/><path d="M2805.19 566.005 2800.28 550.719 2795.81 546 2794.98 546 2793.87 546.915 2793.87 547.602 2797.93 551.96 2800.53 556.3 2802.05 560.987 2802.43 565.914 2801.58 570.812 2799.67 575.472 2796.72 579.77 2792.77 583.584 2792.22 584.042 2792.22 584.729 2793.32 585.553 2793.74 585.553 2794.01 585.553 2794.43 585.415 2798.96 581.084 2802.17 576.42 2804.27 571.347 2805.19 566.005Z" fill="#124191" fill-rule="evenodd"/><path d="M2807.12 627.028 2806.62 624.419 2804.64 622.359 2802.2 622.862 2799.72 622.862 2797.74 624.968 2797.74 627.577 2798.24 630.69 2800.22 632.247 2802.66 632.247 2805.15 631.743 2807.12 629.637 2807.12 627.028Z" fill="#124191" fill-rule="evenodd"/><path d="M2953.97 629.317 2953.37 626.465 2951.74 624.07 2949.37 622.422 2946.52 621.809 2914.82 621.809 2911.96 622.422 2909.59 624.07 2907.96 626.465 2907.37 629.317 2907.37 643.829 2899.45 643.829 2899.45 629.317 2898.84 626.465 2897.21 624.07 2894.83 622.422 2892 621.809 2860.26 621.809 2857.21 622.422 2854.86 624.07 2853.34 626.465 2852.81 629.317 2852.81 643.829 2845.4 643.829 2845.4 638.839 2845.4 629.317 2844.78 626.465 2843.09 624.07 2840.56 622.422 2837.44 621.809 2813.15 621.809 2814.16 623.32 2814.67 624.327 2814.67 625.792 2814.06 630.525 2811.8 634.582 2808.25 637.511 2803.77 638.839 2799.76 638.839 2798.29 637.832 2798.29 658.844 2798.89 661.989 2800.51 664.534 2802.89 666.237 2805.74 666.855 2837.44 666.855 2840.56 666.237 2843.09 664.534 2844.78 661.989 2845.4 658.844 2845.4 646.85 2852.81 646.85 2852.81 658.844 2853.34 661.989 2854.86 664.534 2857.21 666.237 2860.26 666.855 2892 666.855 2894.83 666.237 2897.21 664.534 2898.84 661.989 2899.45 658.844 2899.45 646.85 2907.37 646.85 2907.37 658.844 2907.96 661.989 2909.59 664.534 2911.96 666.237 2914.82 666.855 2946.52 666.855 2949.37 666.237 2951.74 664.534 2953.37 661.989 2953.97 658.844 2953.97 646.85 2953.97 643.829 2953.97 629.317Z" fill="#124191" fill-rule="evenodd"/></g></svg>