<svg width="237" height="144" xmlns="http://www.w3.org/2000/svg" xmlns:xlink="http://www.w3.org/1999/xlink" xml:space="preserve" overflow="hidden"><defs><clipPath id="clip0"><rect x="1304" y="522" width="237" height="144"/></clipPath></defs><g clip-path="url(#clip0)" transform="translate(-1304 -522)"><path d="M1397.06 559.055 1396.51 558.596 1389.31 550.585 1386.56 541.394 1388.35 532.163 1394.76 524.018 1395.36 523.559 1395.36 522.917 1394.21 522 1393.34 522 1392.79 522.459 1385.74 531.337 1383.73 541.403 1386.67 551.428 1394.49 560.201 1394.76 560.431 1395.5 560.522 1395.91 560.522 1396.18 560.431 1397.06 559.743 1397.06 559.055Z" fill="#124191" fill-rule="evenodd"/><path d="M1400.91 554.01 1400.36 553.598 1395.44 547.993 1393.58 541.591 1394.84 535.162 1399.26 529.475 1399.81 529.063 1399.67 528.283 1399.12 527.962 1398.62 527.503 1397.79 527.503 1397.24 527.962 1392.27 534.368 1390.85 541.642 1392.94 548.897 1398.48 555.249 1398.75 555.478 1399.12 555.57 1399.4 555.57 1399.81 555.57 1400.91 554.698 1400.91 554.01Z" fill="#124191" fill-rule="evenodd"/><path d="M1404.21 548.094 1403.66 547.636 1401.11 544.714 1400.14 541.362 1400.75 537.982 1402.98 534.979 1403.53 534.566 1403.53 533.878 1402.98 533.465 1402.47 533.007 1401.65 533.007 1401.09 533.465 1398.25 537.189 1397.43 541.413 1398.61 545.618 1401.78 549.287 1402.06 549.516 1402.75 549.516 1402.98 549.516 1403.39 549.424 1404.21 548.736 1404.21 548.094Z" fill="#124191" fill-rule="evenodd"/><path d="M1404.4 651.875 1400.72 649.582 1382.92 638.484 1381.87 637.796 1380.45 638.117 1379.76 639.218 1379.07 640.273 1379.44 641.694 1380.49 642.336 1392.09 649.582 1316.26 649.582 1327.86 642.336 1328.96 641.694 1329.28 640.273 1328.62 639.218 1327.95 638.117 1326.53 637.796 1304 651.875 1326.53 665.954 1327.95 665.633 1328.57 664.578 1329.28 663.478 1328.96 662.056 1327.86 661.414 1316.26 654.168 1392.09 654.168 1380.49 661.414 1379.44 662.056 1379.07 663.478 1379.76 664.578 1380.45 665.633 1381.87 665.954 1382.92 665.266 1400.72 654.168 1404.4 651.875Z" fill="#124191" fill-rule="evenodd"/><path d="M1446.61 537.638 1446.15 537.088 1445.24 536.95 1444.5 536.859 1443.72 537.18 1443.62 537.638 1443.58 537.822 1440.78 548.071 1440.76 548.14 1437.34 545.943 1437.34 548.828 1434.96 548.828 1434.96 568.319 1433.72 566.81 1433.72 570.795 1432.89 570.795 1432.89 572.996 1427.2 578.637 1425.41 576.821 1425.41 580.426 1415.69 589.964 1417.52 572.996 1418.07 572.996 1425.41 580.426 1425.41 576.821 1421.65 572.996 1432.89 572.996 1432.89 570.795 1419.04 570.795 1421.3 568.135 1426.52 562.036 1433.72 570.795 1433.72 566.81 1429.81 562.036 1428.17 560.018 1429.92 557.908 1433.44 553.689 1434.94 568.135 1434.96 568.319 1434.96 548.828 1432.34 548.828 1432.34 551.029 1426.52 557.908 1424.86 555.913 1424.86 559.926 1417.93 568.135 1419.56 553.689 1419.59 553.46 1424.86 559.926 1424.86 555.913 1422.83 553.46 1420.83 551.029 1432.34 551.029 1432.34 548.828 1415.82 548.828 1425.14 542.839 1425.14 545.664 1425.69 546.214 1427.2 546.214 1427.89 545.664 1427.89 542.825 1437.34 548.828 1437.34 545.943 1431.14 541.949 1427.89 539.858 1427.89 539.748 1427.89 526.311 1427.2 525.852 1425.69 525.852 1425.14 526.311 1425.14 540.037 1411.87 548.571 1411.79 548.232 1409.17 537.18 1408.34 536.859 1407.66 536.95 1406.97 537.088 1406.42 537.638 1410.82 555.799 1411.37 556.12 1412.34 556.12 1413.02 556.028 1413.58 555.34 1412.52 551.029 1417.11 551.029 1407.66 639.08 1407.52 639.63 1408.07 640.227 1408.9 640.227 1408.9 640.318 1409.72 640.318 1410.27 639.86 1410.41 639.218 1410.73 636.099 1415.47 633.21 1426.52 626.469 1442.16 636.099 1442.3 636.008 1442.61 639.08 1442.62 639.218 1442.76 639.86 1443.31 640.318 1444.14 640.318 1444.14 640.227 1444.96 640.227 1445.51 639.63 1445.41 639.218 1445.37 639.08 1445.05 636.099 1445.04 636.008 1444.74 633.21 1443.14 618.269 1443.11 618.031 1442.88 615.829 1442.63 613.582 1442.02 607.9 1442.02 633.21 1430.91 626.469 1428.72 625.139 1431.09 623.671 1440.24 618.031 1440.37 618.031 1442 632.976 1442.02 633.21 1442.02 607.9 1440.74 595.972 1440.54 594.092 1440.3 591.845 1439.99 588.955 1439.82 587.378 1439.82 613.582 1438.72 612.637 1438.72 615.829 1435.65 615.829 1435.65 618.031 1426.52 623.671 1424.18 622.268 1424.18 625.139 1411.01 633.21 1412.63 618.269 1412.66 618.031 1424.18 625.139 1424.18 622.268 1417.11 618.031 1435.65 618.031 1435.65 615.829 1415.27 615.829 1416.78 614.499 1426.79 605.694 1438.72 615.829 1438.72 612.637 1430.64 605.694 1428.72 604.043 1430.62 602.392 1438.03 595.972 1439.82 613.582 1439.82 587.378 1438.37 573.868 1438.28 572.996 1438.04 570.795 1437.78 568.319 1437.21 563.017 1437.21 588.955 1436.52 588.253 1436.52 591.845 1436.38 591.845 1436.38 594.092 1426.79 602.392 1425 600.861 1425 604.043 1413.07 614.499 1414.96 595.972 1415 595.605 1425 604.043 1425 600.861 1418.87 595.605 1417.11 594.092 1436.38 594.092 1436.38 591.845 1417.25 591.845 1419.16 589.964 1427.07 582.214 1436.52 591.845 1436.52 588.253 1430.6 582.214 1428.86 580.426 1430.7 578.637 1435.65 573.868 1437.21 588.955 1437.21 563.017 1436.21 553.689 1435.92 551.029 1440.05 551.029 1439.04 554.79 1438.93 555.249 1438.9 555.34 1439.36 556.028 1440.28 556.12 1441.15 556.12 1441.8 555.799 1441.91 555.34 1446.48 538.28 1446.57 537.822 1446.61 537.638Z" fill="#124191" fill-rule="evenodd"/><path d="M1456.7 541.413 1455.88 537.189 1453.04 533.465 1452.49 533.007 1451.66 533.007 1451.16 533.465 1450.61 533.878 1450.61 534.566 1451.16 534.979 1453.38 537.982 1453.99 541.362 1453.02 544.714 1450.47 547.636 1449.92 548.094 1449.92 548.736 1450.74 549.424 1451.02 549.516 1451.39 549.516 1452.07 549.516 1452.35 549.287 1455.52 545.618 1456.7 541.413Z" fill="#124191" fill-rule="evenodd"/><path d="M1463.28 541.642 1461.87 534.368 1456.94 527.962 1456.39 527.503 1455.42 527.503 1454.87 527.962 1454.32 528.283 1454.32 529.063 1454.87 529.475 1459.29 535.162 1460.57 541.591 1458.72 547.993 1453.77 553.598 1453.22 554.01 1453.22 554.698 1453.77 555.111 1453.91 555.34 1454.32 555.57 1454.73 555.57 1455.01 555.57 1455.42 555.478 1455.7 555.249 1461.21 548.897 1463.28 541.642Z" fill="#124191" fill-rule="evenodd"/><path d="M1470.02 541.491 1465.11 526.595 1460.65 522 1459.83 522 1458.73 522.917 1458.73 523.559 1462.77 527.81 1465.37 532.034 1466.88 536.584 1467.26 541.353 1466.41 546.15 1464.51 550.699 1461.57 554.886 1457.08 559.055 1457.08 559.743 1457.9 560.431 1458.18 560.522 1458.59 560.522 1459.28 560.431 1463.8 556.184 1467 551.639 1469.09 546.7 1470.02 541.491Z" fill="#124191" fill-rule="evenodd"/><path d="M1540.91 651.875 1537.23 649.582 1519.43 638.484 1518.38 637.796 1516.96 638.117 1516.31 639.218 1515.63 640.273 1515.95 641.694 1517 642.336 1528.6 649.582 1453.37 649.582 1464.97 642.336 1466.07 641.694 1466.39 640.273 1465.73 639.218 1465.06 638.117 1463.64 637.796 1441.11 651.875 1463.64 665.954 1465.06 665.633 1465.67 664.578 1466.39 663.478 1466.07 662.056 1464.97 661.414 1453.36 654.168 1528.6 654.168 1517 661.414 1515.95 662.056 1515.63 663.478 1516.31 664.578 1516.96 665.633 1518.38 665.954 1519.43 665.266 1537.23 654.168 1540.91 651.875Z" fill="#124191" fill-rule="evenodd"/></g></svg>